<?xml version="1.0" encoding="UTF-8" standalone="no"?>
<!-- Generator: Adobe Illustrator 19.0.0, SVG Export Plug-In . SVG Version: 6.00 Build 0)  -->

<svg
   xmlns:dc="http://purl.org/dc/elements/1.1/"
   xmlns:cc="http://creativecommons.org/ns#"
   xmlns:rdf="http://www.w3.org/1999/02/22-rdf-syntax-ns#"
   xmlns:svg="http://www.w3.org/2000/svg"
   xmlns="http://www.w3.org/2000/svg"
   xmlns:sodipodi="http://sodipodi.sourceforge.net/DTD/sodipodi-0.dtd"
   xmlns:inkscape="http://www.inkscape.org/namespaces/inkscape"
   version="1.1"
   id="Capa_1"
   x="0px"
   y="0px"
   viewBox="0 0 512 512"
   style="enable-background:new 0 0 512 512;"
   xml:space="preserve"
   width="512px"
   height="512px"
   sodipodi:docname="user2.svg"
   inkscape:version="0.92.1 r15371"><metadata
     id="metadata3737"><rdf:RDF><cc:Work
         rdf:about=""><dc:format>image/svg+xml</dc:format><dc:type
           rdf:resource="http://purl.org/dc/dcmitype/StillImage" /><dc:title></dc:title></cc:Work></rdf:RDF></metadata><defs
     id="defs3735" /><sodipodi:namedview
     pagecolor="#ffffff"
     bordercolor="#666666"
     borderopacity="1"
     objecttolerance="10"
     gridtolerance="10"
     guidetolerance="10"
     inkscape:pageopacity="0"
     inkscape:pageshadow="2"
     inkscape:window-width="1140"
     inkscape:window-height="857"
     id="namedview3733"
     showgrid="false"
     inkscape:zoom="0.8"
     inkscape:cx="193.57665"
     inkscape:cy="231.213"
     inkscape:window-x="1548"
     inkscape:window-y="76"
     inkscape:window-maximized="0"
     inkscape:current-layer="g3698" /><g
     id="g3700"><g
       id="g3698"><path
         d="m 305.05435,307.046 c -19.35989,-19.35921 -42.40321,-33.6908 -67.54476,-42.36641 26.92737,-18.54615 44.6181,-49.58463 44.6181,-84.68144 0,-56.66189 -46.0984,-102.760306 -102.7603,-102.760306 -56.66189,0 -102.760309,46.098416 -102.760309,102.760306 0,35.09681 17.690746,66.13529 44.618799,84.68144 C 96.084325,273.3552 73.04102,287.68679 53.681117,307.046 20.109046,340.61876 1.6198273,385.25493 1.6198273,432.73296 H 29.392885 c 0,-82.69635 67.27815,-149.97451 149.974505,-149.97451 82.69636,0 149.97451,67.27816 149.97451,149.97451 h 27.77304 c 0,-47.47803 -18.48921,-92.1142 -52.06059,-125.68696 z M 179.36739,254.98541 c -41.34784,0 -74.98726,-33.63873 -74.98726,-74.98726 0,-41.34853 33.63942,-74.98725 74.98726,-74.98725 41.34783,0 74.98725,33.63872 74.98725,74.98725 0,41.34853 -33.63942,74.98726 -74.98725,74.98726 z"
         id="path3696"
         style="fill:#ffffff;stroke-width:0.6943264;fill-opacity:1"
         inkscape:connector-curvature="0" /><path
         sodipodi:type="star"
         style="fill:#ffffff;fill-opacity:1;stroke-width:0.86467862"
         id="path3756"
         sodipodi:sides="3"
         sodipodi:cx="447.92377"
         sodipodi:cy="328.84174"
         sodipodi:r1="77.992371"
         sodipodi:r2="38.996185"
         sodipodi:arg1="1.5707963"
         sodipodi:arg2="2.6179939"
         inkscape:flatsided="true"
         inkscape:rounded="0"
         inkscape:randomized="0"
         d="m 447.92377,406.83411 -67.54338,-116.98856 135.08675,0 z"
         inkscape:transform-center-y="10.738635"
         inkscape:transform-center-x="-3.8535147e-006"
         transform="matrix(0.94550239,0,0,0.55075337,24.80649,70.135312)" /></g></g><g
     id="g3702" /><g
     id="g3704" /><g
     id="g3706" /><g
     id="g3708" /><g
     id="g3710" /><g
     id="g3712" /><g
     id="g3714" /><g
     id="g3716" /><g
     id="g3718" /><g
     id="g3720" /><g
     id="g3722" /><g
     id="g3724" /><g
     id="g3726" /><g
     id="g3728" /><g
     id="g3730" /></svg>